<?xml version="1.0" standalone="no"?>
<!DOCTYPE svg PUBLIC "-//W3C//DTD SVG 20010904//EN"
 "http://www.w3.org/TR/2001/REC-SVG-20010904/DTD/svg10.dtd">
<svg version="1.0" xmlns="http://www.w3.org/2000/svg"
 width="101.000000pt" height="30.000000pt" viewBox="0 0 101.000000 40.000000"
 preserveAspectRatio="xMidYMid meet">

<g transform="translate(0.000000,50.000000) scale(0.100000,-0.100000)"
fill="#fff" stroke="none">
<path d="M426 474 c-3 -9 -6 -101 -6 -205 l0 -189 -25 -6 c-14 -3 -32 -4 -40
-1 -8 4 -17 2 -20 -3 -8 -14 49 -22 78 -11 l27 11 0 194 c0 214 3 224 60 212
17 -3 30 -1 30 4 0 6 -22 10 -49 10 -35 0 -51 -4 -55 -16z"/>
<path d="M327 374 c-8 -8 1 -24 14 -24 5 0 9 7 9 15 0 15 -12 20 -23 9z"/>
<path d="M510 365 c0 -9 5 -15 11 -13 6 2 11 8 11 13 0 5 -5 11 -11 13 -6 2
-11 -4 -11 -13z"/>
<path d="M615 322 c-30 -5 -45 -31 -45 -74 0 -51 30 -82 71 -74 26 5 29 3 29
-19 0 -16 6 -25 15 -25 13 0 15 15 13 92 l-3 92 -30 6 c-16 3 -39 4 -50 2z
m43 -21 c9 -5 12 -25 10 -57 -2 -40 -7 -49 -23 -52 -34 -4 -50 14 -50 58 0 51
28 74 63 51z"/>
<path d="M0 271 c0 -27 4 -61 10 -76 9 -24 14 -26 57 -23 l48 3 3 73 c2 45 -1
72 -8 72 -6 0 -10 -27 -10 -65 l0 -65 -35 0 c-31 0 -35 3 -41 35 -3 19 -4 49
-2 65 3 20 0 30 -9 30 -9 0 -13 -15 -13 -49z"/>
<path d="M170 246 c0 -44 4 -76 10 -76 6 0 10 28 10 65 0 52 4 67 16 72 33 12
49 -11 52 -76 2 -33 7 -61 13 -61 6 0 9 29 7 73 l-3 72 -52 3 -53 3 0 -75z"/>
<path d="M330 245 c0 -43 4 -75 10 -75 6 0 10 30 10 69 0 68 1 70 28 74 22 3
20 4 -10 6 l-38 1 0 -75z"/>
<path d="M488 313 c20 -4 22 -10 22 -74 0 -39 4 -69 10 -69 6 0 10 32 10 75
l0 75 -32 -1 c-24 -1 -27 -3 -10 -6z"/>
<path d="M730 262 c0 -77 13 -94 70 -90 l45 3 3 73 c2 45 -1 72 -8 72 -6 0
-10 -27 -10 -65 l0 -65 -30 0 c-37 0 -53 28 -48 86 2 31 -1 44 -9 44 -9 0 -13
-18 -13 -58z"/>
<path d="M899 303 c-21 -24 -16 -103 6 -120 22 -15 63 -17 85 -3 16 10 8 13
-28 10 -29 -2 -52 16 -52 41 0 16 8 19 50 19 53 0 56 3 40 44 -8 22 -16 26
-49 26 -24 0 -44 -6 -52 -17z m65 1 c9 -3 16 -15 16 -25 0 -15 -7 -19 -35 -19
-36 0 -46 15 -23 38 14 14 20 14 42 6z"/>
</g>
</svg>
